<svg id="visual" viewBox="0 0 960 540" width="960" height="540" xmlns="http://www.w3.org/2000/svg" xmlns:xlink="http://www.w3.org/1999/xlink" version="1.1"><rect x="0" y="0" width="960" height="540" fill="#39a399"></rect><path d="M0 345L22.8 343.7C45.7 342.3 91.3 339.7 137 346.7C182.7 353.7 228.3 370.3 274 371.8C319.7 373.3 365.3 359.7 411.2 360.3C457 361 503 376 548.8 379.7C594.7 383.3 640.3 375.7 686 366.7C731.7 357.7 777.3 347.3 823 344C868.7 340.7 914.3 344.3 937.2 346.2L960 348L960 541L937.2 541C914.3 541 868.7 541 823 541C777.3 541 731.7 541 686 541C640.3 541 594.7 541 548.8 541C503 541 457 541 411.2 541C365.3 541 319.7 541 274 541C228.3 541 182.7 541 137 541C91.3 541 45.7 541 22.8 541L0 541Z" fill="#7c8986"></path><path d="M0 361L22.8 360.5C45.7 360 91.3 359 137 364.7C182.7 370.3 228.3 382.7 274 388.7C319.7 394.7 365.3 394.3 411.2 396.8C457 399.3 503 404.7 548.8 406.3C594.7 408 640.3 406 686 403C731.7 400 777.3 396 823 388.5C868.7 381 914.3 370 937.2 364.5L960 359L960 541L937.2 541C914.3 541 868.7 541 823 541C777.3 541 731.7 541 686 541C640.3 541 594.7 541 548.8 541C503 541 457 541 411.2 541C365.3 541 319.7 541 274 541C228.3 541 182.7 541 137 541C91.3 541 45.7 541 22.8 541L0 541Z" fill="#8b9987"></path><path d="M0 449L22.8 445C45.7 441 91.3 433 137 424.5C182.7 416 228.3 407 274 408.5C319.7 410 365.3 422 411.2 431.2C457 440.3 503 446.7 548.8 450.3C594.7 454 640.3 455 686 454.2C731.7 453.3 777.3 450.7 823 448.8C868.7 447 914.3 446 937.2 445.5L960 445L960 541L937.2 541C914.3 541 868.7 541 823 541C777.3 541 731.7 541 686 541C640.3 541 594.7 541 548.8 541C503 541 457 541 411.2 541C365.3 541 319.7 541 274 541C228.3 541 182.7 541 137 541C91.3 541 45.7 541 22.8 541L0 541Z" fill="#ada384"></path><path d="M0 461L22.8 457.2C45.7 453.3 91.3 445.7 137 447.2C182.7 448.7 228.3 459.3 274 462.3C319.7 465.3 365.3 460.7 411.2 460.5C457 460.3 503 464.7 548.8 468.7C594.7 472.7 640.3 476.3 686 477.7C731.7 479 777.3 478 823 473.7C868.7 469.3 914.3 461.7 937.2 457.8L960 454L960 541L937.2 541C914.3 541 868.7 541 823 541C777.3 541 731.7 541 686 541C640.3 541 594.7 541 548.8 541C503 541 457 541 411.2 541C365.3 541 319.7 541 274 541C228.3 541 182.7 541 137 541C91.3 541 45.7 541 22.8 541L0 541Z" fill="#d8a891"></path><path d="M0 483L22.8 482.7C45.7 482.3 91.3 481.7 137 482.8C182.7 484 228.3 487 274 491.2C319.7 495.3 365.3 500.7 411.2 499.8C457 499 503 492 548.8 492.8C594.7 493.7 640.3 502.3 686 500.7C731.7 499 777.3 487 823 480.7C868.7 474.3 914.3 473.7 937.2 473.3L960 473L960 541L937.2 541C914.3 541 868.7 541 823 541C777.3 541 731.7 541 686 541C640.3 541 594.7 541 548.8 541C503 541 457 541 411.2 541C365.3 541 319.7 541 274 541C228.3 541 182.7 541 137 541C91.3 541 45.7 541 22.8 541L0 541Z" fill="#f8adba"></path></svg>