<svg id="visual" viewBox="0 0 960 540" width="960" height="540" xmlns="http://www.w3.org/2000/svg" xmlns:xlink="http://www.w3.org/1999/xlink" version="1.1"><rect x="0" y="0" width="960" height="540" fill="#f8adba"></rect><path d="M0 271L17.8 264.5C35.7 258 71.3 245 106.8 269.8C142.3 294.7 177.7 357.3 213.2 365.8C248.7 374.3 284.3 328.7 320 308C355.7 287.3 391.3 291.7 426.8 309.3C462.3 327 497.7 358 533.2 349.3C568.7 340.7 604.3 292.3 640 265.8C675.7 239.3 711.3 234.7 746.8 255.3C782.3 276 817.7 322 853.2 323.5C888.7 325 924.3 282 942.2 260.5L960 239L960 541L942.2 541C924.3 541 888.7 541 853.2 541C817.7 541 782.3 541 746.8 541C711.3 541 675.7 541 640 541C604.3 541 568.7 541 533.2 541C497.7 541 462.3 541 426.8 541C391.3 541 355.7 541 320 541C284.3 541 248.7 541 213.2 541C177.7 541 142.3 541 106.8 541C71.3 541 35.7 541 17.8 541L0 541Z" fill="#d41d54" stroke-linecap="round" stroke-linejoin="miter"></path></svg>